<svg width="107" height="32" viewBox="0 0 107 32" fill="none" xmlns="http://www.w3.org/2000/svg">
<g clip-path="url(#clip0_3_4)">
<path d="M15.3217 7.04703C15.7934 7.04703 16.2298 7.06808 16.6451 7.11018C17.0605 7.15229 17.4758 7.21545 17.8911 7.29966C18.3065 7.38387 18.7429 7.48913 19.1934 7.62948C19.4257 7.69966 19.6792 7.77685 19.9396 7.86808C20.3831 8.01545 20.8759 7.83299 21.1152 7.42597C21.439 6.8786 21.7558 6.2751 22.0303 5.37685C22.3049 4.4786 22.4105 3.65755 22.4386 2.77334C22.4527 2.34527 22.1993 1.94527 21.791 1.7979C20.5802 1.3558 19.475 1.05404 18.4684 0.892639C17.2787 0.703165 16.0186 0.604919 14.6952 0.604919C12.4567 0.604919 10.4574 0.990884 8.6835 1.76281C6.91659 2.53474 5.43127 3.60843 4.22752 4.98387C3.02377 6.35931 2.10863 7.99439 1.46804 9.88211C0.83449 11.7698 0.517714 13.8119 0.517714 16.0154C0.517714 18.219 0.820411 20.2611 1.42581 22.1277C2.0312 24.0014 2.93929 25.6154 4.14304 26.9628C5.34679 28.3102 6.83916 29.3628 8.62015 30.1207C10.4011 30.8786 12.4707 31.2576 14.8149 31.2576C15.4766 31.2576 16.1172 31.2365 16.7437 31.1944C17.3632 31.1523 17.9967 31.0821 18.6303 30.9909C19.2638 30.8926 19.9255 30.7523 20.6154 30.5558C20.8688 30.4856 21.1293 30.4084 21.3968 30.3172C21.9388 30.1418 22.2274 29.5453 22.0163 29.019C21.5024 27.7277 21.0941 26.3523 20.8125 24.8997C20.6999 24.3242 20.1086 23.9874 19.5524 24.1488C19.0315 24.3032 18.5317 24.4365 18.1516 24.5207C17.3632 24.6891 16.5255 24.7663 15.6455 24.7663C10.7249 24.7663 8.26817 21.847 8.26817 16.0084C8.26817 13.033 8.88061 10.7944 10.1125 9.29264C11.3444 7.79088 13.0761 7.04001 15.3147 7.04001L15.3217 7.04703Z" fill="#111111"/>
<path d="M106.483 28.6887C105.751 27.608 104.759 25.4817 104.751 21.8958C104.737 14.9484 104.73 15.0466 104.294 13.9308C103.85 12.8151 103.224 11.9028 102.407 11.187C101.591 10.4712 100.605 9.94488 99.4437 9.59401C98.2822 9.25015 96.9869 9.08173 95.5438 9.08173C94.495 9.08173 93.3123 9.19401 92.003 9.41155C90.9189 9.59401 89.8348 9.85366 88.7367 10.1835C88.3706 10.2958 88.1242 10.6537 88.1735 11.0326C88.2228 11.4677 88.2369 12.1414 88.1172 13.1098C88.0538 13.6151 87.8638 14.2396 87.6456 14.8151C87.4062 15.4677 88.0468 16.0993 88.7015 15.8466C89.6166 15.4887 90.7641 15.0958 92.1086 14.8501C92.9885 14.6887 93.7699 14.6256 94.4316 14.6256C94.9314 14.6256 95.4101 14.6607 95.8817 14.7308C96.3534 14.801 96.7828 14.9273 97.17 15.1028C97.5571 15.2782 97.8739 15.5379 98.1203 15.8677C98.1203 15.8677 98.1203 15.8677 98.1273 15.8747C98.5004 16.38 98.0781 17.1028 97.4445 17.1028H96.0085C94.9596 17.1028 93.8825 17.208 92.7773 17.4115C91.6721 17.6151 90.6655 17.98 89.7504 18.5063C88.8423 19.0326 88.089 19.7344 87.5118 20.6115C86.9275 21.4958 86.6389 22.6116 86.6389 23.9589C86.6389 25.3063 86.8783 26.4993 87.364 27.4466C87.8497 28.401 88.5185 29.1589 89.3702 29.7414C90.229 30.3168 91.2568 30.7379 92.4606 31.0045C93.6643 31.2712 94.9807 31.3975 96.4167 31.3975C98.071 31.3975 99.6408 31.194 101.14 30.9414C102.295 30.7449 104.491 30.2817 105.99 29.9308C106.54 29.8045 106.793 29.1659 106.476 28.6958L106.483 28.6887ZM98.2329 26.0712C97.9725 26.1203 97.719 26.1554 97.5008 26.1835C97.0292 26.2396 96.6702 26.2677 96.4238 26.2677C96.0648 26.2677 95.6706 26.2396 95.2412 26.1835C94.8117 26.1273 94.4105 26.0151 94.0374 25.8537C93.6643 25.6923 93.3546 25.4466 93.1082 25.1308C92.8618 24.8151 92.7351 24.38 92.7351 23.8326C92.7351 23.0887 93.066 22.5133 93.7277 22.0993C94.3894 21.6852 95.206 21.4817 96.1774 21.4817H97.7683C98.1977 21.4817 98.5497 21.8115 98.5779 22.2396C98.6271 23.0115 98.7186 24.2186 98.8876 25.1379C98.965 25.58 98.6764 26.001 98.24 26.0782L98.2329 26.0712Z" fill="#111111"/>
<path d="M62.6339 22.5836C62.4227 22.1907 62.5072 21.7065 62.8451 21.4117C62.9014 21.3626 62.9577 21.3065 63.0211 21.2573C63.3238 20.9836 63.6124 20.6258 63.894 20.1766C64.1685 19.7275 64.4008 19.1872 64.5979 18.5626C64.788 17.938 64.8865 17.2012 64.8865 16.3591C64.8865 14.1275 64.0488 12.3942 62.3805 11.1521C60.7121 9.91698 58.2061 9.29242 54.8623 9.29242C53.6234 9.29242 52.2999 9.32751 50.9061 9.45382C49.8432 9.55207 48.393 9.73452 46.9288 9.95207C46.2953 10.0503 45.9081 10.6889 46.1404 11.2714C47.2104 13.938 47.8158 16.9907 47.8158 20.2328C47.8158 23.4749 47.1611 26.7661 46.0137 29.51C45.7673 30.0994 46.1545 30.7591 46.7951 30.8503C47.3653 30.9345 47.7947 30.9907 48.0551 31.0187C48.6042 31.0819 49.8361 31.1731 50.3078 31.1731C50.7513 31.1731 51.2581 31.1521 51.8424 31.11C52.1803 31.0889 52.5463 31.0468 52.9335 30.9907C53.4263 30.9205 53.7923 30.4994 53.7923 30.0152V15.7135C53.7923 15.1872 54.2217 14.7521 54.7638 14.731C55.0031 14.724 55.2495 14.717 55.4466 14.717C56.3828 14.717 57.0657 14.9415 57.4951 15.3907C57.9245 15.8398 58.1357 16.4152 58.1357 17.124C58.1357 17.8328 57.9597 18.4924 57.6007 19.1029C57.2417 19.7135 56.1294 20.2959 55.165 20.8363L54.5878 21.1661L58.9663 30.345C59.1071 30.6398 59.3817 30.8503 59.7125 30.8994C60.0786 30.9556 60.4939 31.0047 60.9655 31.0398C61.6836 31.0959 62.4298 31.1591 63.2041 31.1591C63.8376 31.1591 64.4923 31.0889 65.1681 31.0398C65.3089 31.0258 65.4426 31.0187 65.5694 31.0047C66.2803 30.9345 66.6886 30.1907 66.3578 29.5731L62.648 22.5766L62.6339 22.5836Z" fill="#111111"/>
<path d="M42.0431 12.1567C41.1421 11.1672 40.0298 10.4023 38.7064 9.86195C37.383 9.32862 35.8343 9.05493 34.0674 9.05493C32.3005 9.05493 30.794 9.3216 29.4636 9.86195C28.1402 10.4023 27.0279 11.1602 26.1269 12.1567C25.2258 13.1462 24.55 14.3391 24.0995 15.7286C23.6419 17.1181 23.4167 18.6549 23.4167 20.3391C23.4167 22.0234 23.6419 23.497 24.0995 24.8655C24.5571 26.2269 25.2329 27.3988 26.1269 28.3812C27.0279 29.3567 28.1402 30.1076 29.4636 30.6339C30.787 31.1602 32.3216 31.4198 34.0674 31.4198C35.8132 31.4198 37.383 31.1602 38.7064 30.6339C40.0298 30.1076 41.1421 29.3637 42.0431 28.3812C42.9371 27.4058 43.62 26.2339 44.0705 24.8655C44.5281 23.5041 44.7533 21.9953 44.7533 20.3391C44.7533 18.683 44.5281 17.1251 44.0705 15.7286C43.6129 14.3391 42.9371 13.1462 42.0431 12.1567ZM36.7776 24.3462C36.1863 25.2865 35.2782 25.7497 34.0604 25.7497C32.8425 25.7497 31.9485 25.2795 31.3642 24.3462C30.787 23.4128 30.4913 22.0725 30.4913 20.3391C30.4913 18.6058 30.78 17.2304 31.3642 16.29C31.9415 15.3567 32.8425 14.8865 34.0604 14.8865C35.2782 14.8865 36.1792 15.3567 36.7776 16.29C37.3689 17.2234 37.6716 18.5777 37.6716 20.3391C37.6716 22.1005 37.376 23.4128 36.7776 24.3462Z" fill="#111111"/>
<path d="M83.951 25.0888L83.9088 25.0046C83.6061 24.5555 82.9937 24.8712 82.515 24.9905C78.235 26.3239 74.4477 25.0397 74.68 19.7204C74.8349 15.9519 77.8056 14.5274 81.1775 15.0958C82.0785 15.2642 83.6061 15.9239 84.1622 15.2642C84.9999 14.1555 85.2604 12.5484 85.3308 11.2362C85.3167 10.9133 85.3308 10.5976 84.9999 10.373C82.3953 8.80107 78.953 8.92036 75.9964 9.22913C68.5979 10.2607 65.9229 18.2818 68.077 24.7379C70.2522 31.6502 79.0093 32.5905 84.9999 30.3309C85.6687 30.0642 85.6335 29.594 85.2815 29.1309C84.3734 28.0432 84.1763 26.5063 83.951 25.0888Z" fill="#111111"/>
</g>
<defs>
<clipPath id="clip0_3_4">
<rect width="107" height="32" fill="white"/>
</clipPath>
</defs>
</svg>
