<svg width="185" height="47" viewBox="0 0 185 47" fill="none" xmlns="http://www.w3.org/2000/svg">
<path d="M19.2753 14.9308C19.8886 14.9308 20.4636 14.9563 21.0003 15.0138C21.5369 15.0713 22.08 15.148 22.6167 15.2566C23.1533 15.3652 23.722 15.5058 24.3161 15.6911C24.6228 15.7869 24.9487 15.8891 25.2873 15.9977C25.8687 16.1894 26.514 15.953 26.8206 15.4227C27.2359 14.7072 27.6576 13.9213 28.0153 12.7522C28.3731 11.583 28.5073 10.5033 28.5456 9.35327C28.5648 8.79744 28.2326 8.27355 27.7023 8.08189C26.1306 7.50689 24.6867 7.11079 23.3706 6.89356C21.8245 6.6444 20.1825 6.5166 18.4575 6.5166C15.5442 6.5166 12.9375 7.02132 10.6311 8.03077C8.33112 9.04021 6.39532 10.4394 4.83004 12.2411C3.26476 14.0427 2.07004 16.1702 1.23949 18.6363C0.408929 21.1025 0 23.773 0 26.6544C0 29.5358 0.39618 32.1936 1.1884 34.6405C1.98062 37.0874 3.15612 39.1894 4.7214 40.9527C6.28668 42.7161 8.2289 44.0897 10.5481 45.08C12.8672 46.0702 15.557 46.5685 18.6172 46.5685C19.4797 46.5685 20.3167 46.543 21.1281 46.4855C21.9395 46.4344 22.7572 46.3386 23.5814 46.2172C24.4056 46.0894 25.2745 45.9041 26.1689 45.6485C26.4948 45.5591 26.8334 45.4569 27.1848 45.3419C27.8875 45.1119 28.2645 44.3325 27.9962 43.6425C27.3253 41.9558 26.7951 40.1541 26.4245 38.263C26.2776 37.5155 25.5109 37.0683 24.7825 37.2855C24.0989 37.49 23.4537 37.6625 22.9617 37.7711C21.9395 37.9883 20.847 38.0969 19.697 38.0969C13.2889 38.0969 10.0881 34.2827 10.0881 26.6544C10.0881 22.7699 10.8867 19.8438 12.4903 17.8825C14.0939 15.9211 16.3492 14.9435 19.2625 14.9435L19.2753 14.9308Z" fill="#003040"/>
<path d="M137.981 43.2018C137.029 41.7899 135.739 39.0107 135.732 34.3276C135.713 25.249 135.707 25.3832 135.132 23.9201C134.557 22.4634 133.739 21.2687 132.678 20.3296C131.618 19.3968 130.327 18.7004 128.819 18.2532C127.305 17.8059 125.619 17.5823 123.747 17.5823C122.379 17.5823 120.84 17.7229 119.134 18.0104C117.722 18.2468 116.304 18.5854 114.885 19.0198C114.412 19.1668 114.093 19.6332 114.15 20.1251C114.214 20.6937 114.234 21.5754 114.074 22.8404C113.991 23.4984 113.742 24.3099 113.46 25.0637C113.147 25.9199 113.984 26.744 114.834 26.4054C116.029 25.939 117.517 25.4215 119.268 25.1021C120.418 24.8912 121.427 24.8018 122.29 24.8018C122.942 24.8018 123.568 24.8465 124.181 24.936C124.794 25.0254 125.35 25.1915 125.855 25.4215C126.36 25.6515 126.775 25.9837 127.094 26.4182C127.094 26.4182 127.094 26.4246 127.107 26.431C127.599 27.0954 127.043 28.0345 126.219 28.0345H124.347C122.98 28.0345 121.574 28.1687 120.137 28.4371C118.699 28.7054 117.383 29.1845 116.195 29.8682C115.007 30.5518 114.035 31.4718 113.282 32.6218C112.528 33.7718 112.144 35.2285 112.144 36.9918C112.144 38.7551 112.457 40.3076 113.09 41.5535C113.722 42.7929 114.591 43.796 115.709 44.5499C116.827 45.3037 118.163 45.8532 119.728 46.1982C121.293 46.5432 123.012 46.7093 124.884 46.7093C127.043 46.7093 129.081 46.4474 131.036 46.1151C132.544 45.8596 135.406 45.2526 137.355 44.7926C138.07 44.6265 138.403 43.796 137.987 43.1826L137.981 43.2018ZM127.241 39.7773C126.903 39.8412 126.57 39.8924 126.283 39.9243C125.67 39.9946 125.203 40.0329 124.884 40.0329C124.417 40.0329 123.9 40.001 123.344 39.9243C122.788 39.854 122.264 39.7071 121.779 39.4899C121.293 39.2726 120.891 38.9596 120.565 38.5443C120.239 38.129 120.079 37.5668 120.079 36.8449C120.079 35.8737 120.514 35.1199 121.376 34.5768C122.239 34.0337 123.299 33.7654 124.564 33.7654H126.634C127.19 33.7654 127.657 34.1998 127.689 34.7557C127.752 35.7651 127.874 37.3432 128.091 38.5443C128.193 39.1193 127.823 39.6687 127.248 39.7709L127.241 39.7773Z" fill="#003040"/>
<path d="M80.8772 35.2219C80.6025 34.7044 80.7111 34.0783 81.1519 33.6886C81.2222 33.6247 81.2988 33.5544 81.3819 33.4841C81.778 33.1263 82.1549 32.6599 82.5127 32.0722C82.8705 31.4844 83.1772 30.7816 83.4264 29.9638C83.6755 29.146 83.8033 28.1877 83.8033 27.0824C83.8033 24.1691 82.7172 21.901 80.5386 20.2846C78.3664 18.6683 75.1016 17.8569 70.7508 17.8569C69.1344 17.8569 67.4158 17.9016 65.6014 18.0677C64.2214 18.1955 62.3303 18.4319 60.42 18.7194C59.5958 18.8472 59.0911 19.6777 59.3914 20.438C60.7842 23.92 61.5763 27.9066 61.5763 32.1425C61.5763 36.3783 60.7203 40.678 59.2253 44.2558C58.9058 45.0288 59.4041 45.8849 60.2475 46.0063C60.9886 46.1149 61.5508 46.1916 61.8894 46.23C62.6049 46.3194 64.2086 46.4344 64.8155 46.4344C65.3905 46.4344 66.055 46.4088 66.8089 46.3577C67.2497 46.3258 67.7225 46.2747 68.2272 46.198C68.8661 46.1022 69.3452 45.5591 69.3452 44.9266V26.2455C69.3452 25.5555 69.901 24.9869 70.6038 24.9613C70.9169 24.9485 71.2363 24.9486 71.4919 24.9486C72.7122 24.9486 73.6066 25.2425 74.1625 25.8302C74.7183 26.418 74.9994 27.1719 74.9994 28.0983C74.9994 29.0247 74.763 29.8872 74.2966 30.6858C73.8302 31.4844 72.38 32.2383 71.1214 32.9538L70.3674 33.3819L76.0728 45.3738C76.258 45.7572 76.6158 46.0319 77.0439 46.1022C77.5167 46.1788 78.0597 46.2427 78.673 46.2874C79.6058 46.3577 80.5769 46.4472 81.5864 46.4472C82.4105 46.4472 83.2667 46.3577 84.1483 46.2874C84.3272 46.2747 84.4997 46.2555 84.6722 46.2363C85.5922 46.1405 86.1288 45.1694 85.7008 44.3644L80.8644 35.2219H80.8772Z" fill="#003040"/>
<path d="M54.0694 21.6005C52.9003 20.3036 51.45 19.3069 49.725 18.6041C48 17.9013 45.9811 17.5499 43.6811 17.5499C41.3811 17.5499 39.4197 17.9013 37.6883 18.6041C35.9633 19.3069 34.5131 20.3036 33.3439 21.6005C32.1747 22.8974 31.2931 24.4499 30.6989 26.2708C30.1047 28.0852 29.8044 30.0977 29.8044 32.2891C29.8044 34.4805 30.0983 36.4163 30.6989 38.1988C31.2931 39.9813 32.1747 41.5083 33.3439 42.786C34.5131 44.0638 35.9633 45.0413 37.6883 45.7249C39.4133 46.4085 41.413 46.7536 43.6811 46.7536C45.9491 46.7536 48 46.4085 49.725 45.7249C51.45 45.0413 52.9003 44.0638 54.0694 42.786C55.2386 41.5083 56.1203 39.9813 56.7144 38.1988C57.3086 36.4163 57.6089 34.4485 57.6089 32.2891C57.6089 30.1297 57.3086 28.0916 56.7144 26.2708C56.1203 24.4563 55.2386 22.8974 54.0694 21.6005ZM47.2142 37.5216C46.4411 38.7483 45.2591 39.3552 43.6811 39.3552C42.103 39.3552 40.9275 38.7483 40.1736 37.5216C39.4197 36.3013 39.0364 34.5572 39.0364 32.2891C39.0364 30.021 39.4133 28.2257 40.1736 26.9991C40.9275 25.7788 42.0966 25.1655 43.6811 25.1655C45.2655 25.1655 46.4411 25.7788 47.2142 26.9991C47.9872 28.2194 48.377 29.9827 48.377 32.2891C48.377 34.5955 47.9872 36.3013 47.2142 37.5216Z" fill="#003040"/>
<path d="M108.643 38.4996L108.592 38.391C108.196 37.8032 107.404 38.2185 106.771 38.3718C101.194 40.116 96.2616 38.4357 96.5746 31.491C96.7727 26.5715 100.644 24.706 105.04 25.4535C106.215 25.6771 108.209 26.5396 108.924 25.6707C110.017 24.2204 110.349 22.1249 110.445 20.4062C110.432 19.9846 110.439 19.5693 110.017 19.2754C106.631 17.2246 102.139 17.3779 98.2933 17.7804C88.6652 19.1285 85.1769 29.5999 87.9816 38.0396C90.8119 47.0671 102.222 48.3002 110.017 45.3485C110.886 44.9971 110.847 44.3901 110.381 43.7768C109.199 42.3521 108.944 40.346 108.643 38.4932V38.4996Z" fill="#003040"/>
<path d="M153.87 8.66309L152.419 13.0331H155.339L153.914 8.66309H153.87Z" fill="#999999"/>
<path d="M164.098 10.5483C163.824 10.3758 163.498 10.2927 163.127 10.2927C162.495 10.2927 162.035 10.5611 161.734 11.0913C161.434 11.6216 161.287 12.3116 161.287 13.1677V13.3274C161.287 14.0877 161.434 14.6947 161.728 15.1483C162.022 15.6019 162.482 15.8255 163.114 15.8255C163.504 15.8255 163.836 15.7424 164.105 15.5763C164.379 15.4102 164.597 15.1674 164.769 14.8608V11.2702C164.597 10.9635 164.373 10.7272 164.098 10.561V10.5483Z" fill="#999999"/>
<path d="M173.362 0.00639513H149.276C142.894 0.00639513 137.719 5.18141 137.719 11.5639C137.719 15.9211 140.127 19.7097 143.686 21.6839C145.539 22.6678 144.529 25.2617 144.203 27.3189C144.018 28.5008 144.657 28.9672 145.52 28.2517C147.641 26.5011 150.375 24.3417 150.375 24.3417C151.359 23.5495 152.586 23.115 153.851 23.115H173.362C179.745 23.115 184.92 17.94 184.92 11.5575C184.92 5.17502 179.745 0 173.362 0V0.00639513Z" fill="#999999"/>
<path d="M160.972 17.2334H157.949L157.182 14.79H153.163L152.397 17.2334H149.375L153.301 5.59668H157.046L160.972 17.2334ZM167.196 9.27246H167.287L169.435 5.59668H172.582L169.071 11.415L172.696 17.2334H169.469L167.287 13.5176H167.196L165.015 17.2334H161.81L165.418 11.415L161.9 5.59668H165.071L167.196 9.27246ZM153.833 12.6533H156.511L155.216 8.52832H155.125L153.833 12.6533Z" fill="white"/>
</svg>
